# File created by Blade
# Date/Time:  Fri Jan 16 19:32:17 2015
# Frame Rate: 120.000 fps
#------------------------------------------------------
:FULLY-SPECIFIED
:DEGREES
426
root 19.671696 35.436976 -19.735403 13.219751 13.299947 0.181044
Spine -28.927788 -10.650667 -1.249208
Head 17.552701 -3.951233 7.138091
LeftShoulder -7.292337 0.676874 -8.614436
LeftArm -102.358701 57.581358 -204.038376
LeftForeArm 47.267788 0.000000 137.547123
LeftHand 10.764524 -0.000000 -23.230775
LeftHandThumb1 -26.253704 0.000000 33.147579
RightShoulder -19.915984 29.657377 -41.399049
RightArm -203.218155 51.620674 -249.414262
RightForeArm 20.805752 -0.000000 150.744870
RightHand 4.752416 -0.000000 -7.715872
RightHandThumb1 -24.326973 -0.000000 -32.862282
LeftUpLeg -3.598177 -0.649029 1.668364
LeftLeg -7.606189 -0.000000 0.000000
LeftFoot -19.558984 26.092955 -13.440487
LeftToeBase 25.817512 -0.000000 -0.000000
RightUpLeg -0.781456 -17.899623 0.002755
RightLeg -4.860813 -0.000000 0.000000
RightFoot -23.925012 -24.879491 21.944819
RightToeBase 23.404139 -0.000000 -0.000000
427
root 19.667057 35.437633 -19.742926 13.216132 13.290043 0.167591
Spine -28.930105 -10.660899 -1.246657
Head 17.547299 -3.959993 7.138547
LeftShoulder -7.312896 0.722301 -8.593409
LeftArm -102.372137 57.586835 -204.074352
LeftForeArm 47.207310 -0.000000 137.527781
LeftHand 10.751532 -0.000000 -23.216797
LeftHandThumb1 -26.253704 0.000000 33.147579
RightShoulder -19.915906 29.700757 -41.434331
RightArm -203.299386 51.571786 -249.536494
RightForeArm 20.788888 -0.000000 150.741264
RightHand 4.728897 -0.000000 -7.677690
RightHandThumb1 -24.326973 -0.000000 -32.862282
LeftUpLeg -3.614653 -0.637396 1.684184
LeftLeg -7.597116 -0.000000 0.000000
LeftFoot -19.554335 26.096272 -13.427243
LeftToeBase 25.830688 -0.000000 -0.000000
RightUpLeg -0.799758 -17.872825 0.019944
RightLeg -4.850684 -0.000000 0.000000
RightFoot -23.931539 -24.913393 21.909338
RightToeBase 23.506199 -0.000000 -0.000000
428
root 19.663713 35.438401 -19.748546 13.207021 13.280067 0.162490
Spine -28.925823 -10.670779 -1.250669
Head 17.530249 -3.959276 7.140657
LeftShoulder -7.328724 0.765659 -8.584455
LeftArm -102.363080 57.575708 -204.079790
LeftForeArm 47.167513 -0.000000 137.520876
LeftHand 10.731837 -0.000000 -23.215925
LeftHandThumb1 -26.253704 0.000000 33.147579
RightShoulder -19.913308 29.676963 -41.453001
RightArm -203.298705 51.507421 -249.596644
RightForeArm 20.789552 -0.000000 150.735998
RightHand 4.655564 0.000000 -7.633736
RightHandThumb1 -24.326973 -0.000000 -32.862282
LeftUpLeg -3.615779 -0.633875 1.691435
LeftLeg -7.594431 -0.000000 0.000000
LeftFoot -19.560644 26.093316 -13.433862
LeftToeBase 25.859086 -0.000000 -0.000000
RightUpLeg -0.807244 -17.873658 0.029299
RightLeg -4.846477 -0.000000 0.000000
RightFoot -23.917395 -24.881857 21.941128
RightToeBase 23.360948 -0.000000 -0.000000
429
root 19.661963 35.438128 -19.749924 13.166623 13.285342 0.160071
Spine -28.896483 -10.699160 -1.254143
Head 17.534151 -3.928117 7.162214
LeftShoulder -7.361841 0.801083 -8.578380
LeftArm -102.327690 57.561682 -204.061530
LeftForeArm 47.131819 -0.000000 137.519587
LeftHand 10.708765 -0.000000 -23.221788
LeftHandThumb1 -26.253704 0.000000 33.147579
RightShoulder -19.893648 29.678296 -41.466373
RightArm -203.352592 51.486510 -249.701353
RightForeArm 20.834819 -0.000000 150.714580
RightHand 4.665108 -0.000000 -7.588730
RightHandThumb1 -24.326973 -0.000000 -32.862282
LeftUpLeg -3.577278 -0.618946 1.693850
LeftLeg -7.599670 -0.000000 0.000000
LeftFoot -19.552201 26.073806 -13.425899
LeftToeBase 25.888703 -0.000000 -0.000000
RightUpLeg -0.762875 -17.899982 0.024403
RightLeg -4.856311 -0.000000 0.000000
RightFoot -23.908967 -24.863919 21.945992
RightToeBase 23.366374 -0.000000 -0.000000
430
root 19.661071 35.437850 -19.745822 13.077202 13.296548 0.154763
Spine -28.811869 -10.735533 -1.266343
Head 17.525592 -3.914788 7.194752
LeftShoulder -7.390129 0.857881 -8.594057
LeftArm -102.306415 57.576427 -204.040226
LeftForeArm 47.133624 -0.000000 137.532695
LeftHand 10.676238 -0.000000 -23.252242
LeftHandThumb1 -26.253704 0.000000 33.147579
RightShoulder -19.918190 29.717780 -41.514564
RightArm -203.491587 51.472860 -249.854564
RightForeArm 20.862300 -0.000000 150.714217
RightHand 4.654124 -0.000000 -7.602731
RightHandThumb1 -24.326973 -0.000000 -32.862282
LeftUpLeg -3.469485 -0.610306 1.710546
LeftLeg -7.616613 -0.000000 0.000000
LeftFoot -19.565588 25.959458 -13.492752
LeftToeBase 25.880609 -0.000000 -0.000000
RightUpLeg -0.650114 -17.943286 0.004851
RightLeg -4.881266 -0.000000 0.000000
RightFoot -23.899344 -24.812217 21.970205
RightToeBase 23.415532 -0.000000 -0.000000
431
root 19.656995 35.438495 -19.751509 13.069882 13.294353 0.152225
Spine -28.806209 -10.750863 -1.282756
Head 17.511339 -3.935832 7.234450
LeftShoulder -7.409876 0.931713 -8.612994
LeftArm -102.282607 57.583032 -204.032748
LeftForeArm 47.174011 -0.000000 137.552883
LeftHand 10.653929 -0.000000 -23.317903
LeftHandThumb1 -26.253704 0.000000 33.147579
RightShoulder -19.917716 29.668712 -41.519369
RightArm -203.506291 51.470829 -249.922335
RightForeArm 20.865392 -0.000000 150.709729
RightHand 4.629217 -0.000000 -7.599640
RightHandThumb1 -24.326973 -0.000000 -32.862282
LeftUpLeg -3.477226 -0.603203 1.708138
LeftLeg -7.619659 -0.000000 0.000000
LeftFoot -19.532837 26.037865 -13.442808
LeftToeBase 25.838782 -0.000000 -0.000000
RightUpLeg -0.663448 -17.939100 0.013132
RightLeg -4.865487 -0.000000 0.000000
RightFoot -23.906668 -24.826364 21.956026
RightToeBase 23.420031 -0.000000 -0.000000
